<svg id="Layer_1" data-name="Layer 1" xmlns="http://www.w3.org/2000/svg" viewBox="0 0 427.04 278.72"><defs><style>.cls-1{fill:#fff;}.cls-2{fill:#f49926;}.cls-3{fill:#1aaae2;}.cls-4{fill:#92c740;}.cls-5{fill:#883d95;}</style></defs><title>logo-negative</title><path class="cls-1" d="M7.82,82.76Q3.68,78.6,3.69,70.85V50.7h6.63V70.59q0,10.51,9.08,10.51t9-10.51V50.7H35V70.85q0,7.75-4.1,11.91t-11.5,4.15Q11.94,86.91,7.82,82.76Z"/><path class="cls-1" d="M74.22,50.7V86.4H68.76L49.08,62.23V86.4H42.5V50.7H48L67.64,74.88V50.7Z"/><path class="cls-1" d="M82.07,50.7H88.7V86.4H82.07Z"/><path class="cls-1" d="M96.61,50.7h15.6a22.39,22.39,0,0,1,10.15,2.22,16.43,16.43,0,0,1,6.89,6.27,17.81,17.81,0,0,1,2.45,9.36,17.76,17.76,0,0,1-2.45,9.36,16.36,16.36,0,0,1-6.89,6.27,22.39,22.39,0,0,1-10.15,2.22H96.61Zm15.3,30.09a15.18,15.18,0,0,0,6.91-1.5A10.71,10.71,0,0,0,123.41,75a13.73,13.73,0,0,0,0-12.9,10.74,10.74,0,0,0-4.59-4.28,15.06,15.06,0,0,0-6.91-1.51h-8.67V80.79Z"/><path class="cls-1" d="M143.83,84.54A17.5,17.5,0,0,1,137,78a19,19,0,0,1,0-18.82,17.64,17.64,0,0,1,6.88-6.58,21.63,21.63,0,0,1,19.69,0,17.66,17.66,0,0,1,6.88,6.56,19.05,19.05,0,0,1,0,18.87,17.56,17.56,0,0,1-6.88,6.55,21.63,21.63,0,0,1-19.69,0Zm16.27-5.05A11.54,11.54,0,0,0,164.59,75a13.58,13.58,0,0,0,0-12.9,11.6,11.6,0,0,0-4.49-4.49,13.7,13.7,0,0,0-12.85,0,11.67,11.67,0,0,0-4.49,4.49,13.58,13.58,0,0,0,0,12.9,11.6,11.6,0,0,0,4.49,4.49,13.63,13.63,0,0,0,12.85,0Z"/><path class="cls-1" d="M181.29,85.74a16.64,16.64,0,0,1-6.09-3.11l2.29-5.15a18.35,18.35,0,0,0,5.38,2.83,19.61,19.61,0,0,0,6.4,1.09,11.08,11.08,0,0,0,5.95-1.27,3.88,3.88,0,0,0,2-3.37,3.25,3.25,0,0,0-1.1-2.52,7.76,7.76,0,0,0-2.78-1.56c-1.12-.37-2.65-.79-4.59-1.27a53.2,53.2,0,0,1-6.6-1.94,11,11,0,0,1-4.34-3A8.22,8.22,0,0,1,176,60.85a9.55,9.55,0,0,1,1.61-5.38,10.89,10.89,0,0,1,4.85-3.85,19.62,19.62,0,0,1,7.93-1.43,25.8,25.8,0,0,1,6.42.82,17.66,17.66,0,0,1,5.46,2.34l-2.09,5.16a20.88,20.88,0,0,0-4.9-2.1,18.55,18.55,0,0,0-5-.71c-2.61,0-4.56.44-5.83,1.33a4.07,4.07,0,0,0-1.92,3.52,3.16,3.16,0,0,0,1.1,2.49,7.81,7.81,0,0,0,2.78,1.53c1.12.38,2.65.8,4.59,1.28a48.61,48.61,0,0,1,6.53,1.91,11.29,11.29,0,0,1,4.36,3,8,8,0,0,1,1.81,5.5,9.42,9.42,0,0,1-1.61,5.36,10.86,10.86,0,0,1-4.87,3.82,19.7,19.7,0,0,1-8,1.43A27.33,27.33,0,0,1,181.29,85.74Z"/><path class="cls-1" d="M98.57,109.23a11.74,11.74,0,0,1,5.28,4.39,13.37,13.37,0,0,1,0,13.54,11.66,11.66,0,0,1-5.28,4.41,19.74,19.74,0,0,1-8.08,1.53H82.43v10.3H75.8V107.7H90.49A19.74,19.74,0,0,1,98.57,109.23Zm-1.81,16.42a7.25,7.25,0,0,0,0-10.5q-2.25-1.84-6.58-1.84H82.43v14.18h7.75Q94.51,127.49,96.76,125.65Z"/><path class="cls-1" d="M137.36,137.84v5.56H110.58V107.7h26.06v5.56H117.21v9.28h17.24V128H117.21v9.84Z"/><path class="cls-1" d="M143,107.7h6.63v30.09h18.66v5.61H143Z"/><path class="cls-1" d="M195.24,135.14H177.39l-3.52,8.26H167l16.06-35.7h6.53l16.12,35.7h-6.94Zm-2.19-5.2-6.73-15.61-6.68,15.61Z"/><path class="cls-1" d="M10.8,229.36q-7.86-7.74-7.86-21.92V172.16h18v34.73q0,15.29,12.1,15.28t12-15.28V172.16H62.77v35.28q0,14.19-7.86,21.92t-22,7.73Q18.67,237.09,10.8,229.36Z"/><path class="cls-1" d="M117.38,191.16q5.59,5.46,5.59,16.46v28.19H105.7V210.44q0-10.09-8.1-10.09a9.25,9.25,0,0,0-7.14,2.91q-2.68,2.91-2.68,8.73v23.82H70.5V186.52H87v5.37a19.64,19.64,0,0,1,6.91-4.59,23.45,23.45,0,0,1,8.73-1.59Q111.8,185.71,117.38,191.16Z"/><path class="cls-1" d="M131.16,178.43a8.82,8.82,0,0,1,0-13.09,10.92,10.92,0,0,1,7.64-2.64,11.28,11.28,0,0,1,7.63,2.5,8.08,8.08,0,0,1,2.91,6.41,8.83,8.83,0,0,1-2.91,6.78,10.8,10.8,0,0,1-7.63,2.68A10.92,10.92,0,0,1,131.16,178.43Zm-1,8.09h17.28v49.29H130.16Z"/><path class="cls-1" d="M178.31,187.39a26,26,0,0,1,9.68-1.68v15.55a36.13,36.13,0,0,0-3.91-.28q-5.55,0-8.68,3t-3.14,9.19v22.64H155V186.52h16.46v5.92A16,16,0,0,1,178.31,187.39Z"/><path class="cls-1" d="M268.46,153.29a160.41,160.41,0,0,1-13,23.19c-5.12,7.42-21.93,20.12-21.93,20.12s16.29.2,30.61-3.85c10.59-3,14.79-7.18,17.4-9.77C274.75,175.45,270.83,165.1,268.46,153.29Z"/><path class="cls-2" d="M323.06,81.33a1,1,0,0,1-.71-.3,1,1,0,0,1-.24-1,18.87,18.87,0,0,0,.5-2.14,1,1,0,0,1,1-.83l.17,0a1,1,0,0,1,.81,1.16A23.12,23.12,0,0,1,324,80.6h0a1,1,0,0,1-1,.73Z"/><path class="cls-1" d="M323.6,78.05l0,.14,0-.14m0,.14c-.13.71-.3,1.42-.5,2.14h0c.2-.72.37-1.43.5-2.14"/><path class="cls-3" d="M405.27,83.56c-1.09,4.53-1.26,8.11-7.82,13.16-6.27,4.84-20.35,7.88-28.51,11.33-26.15,11-37.4,22.42-40.84,43.08-6.55,39.25,30.69,53.52,30.69,53.52a66.9,66.9,0,0,0,23-11.42,71.71,71.71,0,0,0,17.83-19.89s-14.79-10.52-23,1c-6.35,8.91,1.36,17.48,1.36,17.48s-20.45-10.28-12-31.46c8.85-22.28,35.45-21,37.49-21,3.31-.1,8.13-.06,8.13-.06.89-8.65,1.3-12.68.79-22A116.8,116.8,0,0,0,405.27,83.56Z"/><path class="cls-2" d="M378.81,67.6c-15-3.36-37.75-4.24-49.77-3.43-24.47,1.64-44,8.56-49.87,16a68.19,68.19,0,0,1,16.95,3.13c2.7-6.14,8.08-10.25,13.74-10.25h0a11.17,11.17,0,0,1,10.68,7.82A17.77,17.77,0,0,1,320.6,92,19.45,19.45,0,0,1,315,101a164.57,164.57,0,0,0,24.91,1.77h1.75c2.49-7,10.2-22.23,29.62-27.09l.11-.27a10.22,10.22,0,0,1,7.42-6.13,9.68,9.68,0,0,1,1.7-.15c4,0,7.78,2.45,10.3,6.3a56.42,56.42,0,0,1,13.05,4.4S399.61,72.25,378.81,67.6Z"/><path class="cls-1" d="M335.88,196.8c-8.75-8.73-18.38-23.9-14.6-46.6,2-11.72,6.25-20.71,13.51-28.3,4.85-5.06,11.18-9.62,19.49-14-12.19.86-34,1.25-54.24-4.28-26.39-7.23-23.42-21.36-23.42-21.36s-13,29.16-5.47,63.89,36.26,54.47,53.07,58.49c8.64,2.06,17.58,2,23.83,1.63A65.17,65.17,0,0,1,335.88,196.8Z"/><ellipse class="cls-3" cx="382.07" cy="83.58" rx="7.63" ry="10.32" transform="translate(-8.95 91.98) rotate(-13.57)"/><path class="cls-1" d="M311.28,77.54a6.88,6.88,0,0,0-1.64-.2h0c-4.25,0-8.51,4-10.13,9.57a14.3,14.3,0,0,0,0,8.62,7.35,7.35,0,0,0,5,5.07,6.41,6.41,0,0,0,1.64.21c4.25,0,8.51-4,10.12-9.58C318.18,84.87,315.92,78.73,311.28,77.54Zm-3,.88h0Zm-.67.19-.05,0ZM311,98Z"/><path class="cls-4" d="M271.52,82.56a188.24,188.24,0,0,1-17.61,12.78c-6.1,3.82-20.35,8.15-20.35,8.15a46.89,46.89,0,0,0,16.42,5.7,22.72,22.72,0,0,0,13.08-2.11A83.53,83.53,0,0,1,271.52,82.56Z"/><path class="cls-5" d="M407.21,76.64a143.3,143.3,0,0,1,9.09,14.74c2.63,5,4.84,16.34,4.84,16.34a34.29,34.29,0,0,0,6.62-11.89,15.74,15.74,0,0,0-.42-10.17A77.44,77.44,0,0,1,407.21,76.64Z"/><path class="cls-4" d="M293.74,56.46c0-.35,0-.7,0-1a10.72,10.72,0,0,0-1.25-4.5,7.15,7.15,0,0,0-.45-.71,5.69,5.69,0,0,0-2.41-2,4.74,4.74,0,0,0-.75-.26l-.29-.06h0l-.37-.06h0l-.44,0h0l-.5,0h-.58l-.39,0h-.08l-.48.09-.11,0-.44.12-.08,0-.51.19-.12,0-.47.23-.08,0c-.18.1-.35.2-.53.32l-.13.09-.49.36-.06,0-.54.48a1.59,1.59,0,0,1-.13.13c-.16.16-.33.34-.49.53l-.05.06a7.4,7.4,0,0,0-.52.67l-.13.17c-.16.23-.32.48-.48.74l0,.05c-.16.28-.32.58-.48.89l-.12.23c-.16.31-.31.64-.46,1v0c-.15.36-.3.74-.44,1.14,0,.09-.07.19-.11.29-.14.41-.28.83-.41,1.28a16.5,16.5,0,0,0-.67,4.44c0,.36,0,.71,0,1a10.86,10.86,0,0,0,1.11,4.24,6.92,6.92,0,0,0,.82,1.25,6.07,6.07,0,0,0,.85.9A5.23,5.23,0,0,0,282.42,70a4.54,4.54,0,0,0,.72.13l.24,0a4.17,4.17,0,0,0,.5,0l.3,0,.45,0a1.8,1.8,0,0,0,.32-.06,4,4,0,0,0,.44-.11l.31-.09.45-.17.3-.13c.16-.07.31-.15.46-.23l.28-.15.52-.34.2-.13c.23-.17.46-.35.69-.55a1.07,1.07,0,0,0,.16-.14c.18-.15.35-.31.52-.48l.23-.25c.14-.15.28-.29.41-.45l.25-.3.37-.47.24-.33.33-.5.23-.37.31-.53c.07-.13.14-.25.2-.38s.2-.39.29-.59.12-.25.17-.38.19-.45.28-.68.09-.22.13-.34c.13-.34.25-.7.35-1.06A16.13,16.13,0,0,0,293.74,56.46Z"/><path class="cls-2" d="M337.93,40.75a5.48,5.48,0,0,0-.7,0H337l-.47,0-.27.05-.41.09-.28.09-.38.13-.29.13-.36.17-.29.17-.34.21-.28.2-.33.26-.26.23c-.11.09-.21.19-.31.29a3.07,3.07,0,0,0-.25.26c-.1.11-.2.21-.29.33l-.24.28-.27.37c-.07.1-.15.2-.22.31s-.16.26-.25.39-.13.22-.19.34l-.23.43a3.78,3.78,0,0,0-.17.35c-.07.15-.14.31-.2.47a3.68,3.68,0,0,0-.15.35c-.07.17-.12.35-.18.52l-.12.35c-.06.2-.11.4-.16.6a2.81,2.81,0,0,1-.08.31c-.06.31-.12.62-.17.94-.79,5.28,1.67,10,5.5,10.47a5.48,5.48,0,0,0,.7,0l.22,0a3.71,3.71,0,0,0,.47,0l.27-.05.41-.09.28-.09.39-.13.28-.13c.12-.06.25-.11.36-.18l.29-.16.34-.22.28-.19.33-.26.26-.23c.11-.09.21-.19.31-.29l.25-.26.29-.33.24-.29q.13-.16.27-.36c.07-.1.15-.2.22-.31l.25-.39c.06-.12.13-.22.19-.34s.16-.28.23-.43a3.78,3.78,0,0,0,.17-.35l.21-.47c0-.12.1-.23.14-.35s.12-.35.18-.52l.12-.35c.06-.2.11-.4.16-.61s.05-.2.08-.3c.07-.31.13-.63.17-.95C344.22,45.94,341.76,41.26,337.93,40.75Z"/><path class="cls-5" d="M393.68,53.91c-.09-.29-.18-.57-.29-.84l-.1-.27c-.08-.18-.15-.36-.23-.53l-.15-.3c-.08-.15-.16-.31-.25-.46a2.75,2.75,0,0,0-.17-.29,3.87,3.87,0,0,0-.27-.43l-.19-.27c-.09-.14-.2-.28-.3-.41l-.19-.24-.37-.41-.17-.19c-.19-.18-.37-.36-.57-.53l-.06-.05c-.17-.15-.36-.29-.54-.43l-.22-.15-.41-.27L389,47.7a4,4,0,0,0-.41-.21,1.69,1.69,0,0,0-.27-.13l-.4-.16-.28-.1a3.31,3.31,0,0,0-.42-.12l-.26-.07c-.16,0-.33-.06-.49-.09l-.21,0c-.23,0-.47,0-.7,0l-.51,0-.24,0a6.42,6.42,0,0,0-.74.14,6.14,6.14,0,0,0-3.53,2.52,7.54,7.54,0,0,0-.74,1.34,9.13,9.13,0,0,0-.7,3.19,8.35,8.35,0,0,0,0,.87,11.21,11.21,0,0,0,.45,2.69c.08.29.18.57.28.84,0,.09.07.18.11.27s.15.36.23.53.09.2.14.3.16.31.25.46a2.75,2.75,0,0,0,.17.29l.27.43c.06.09.12.19.19.28l.3.4.2.24L382,62l.17.19q.29.29.57.54l.06,0c.18.15.36.3.55.43l.21.15.42.27a2,2,0,0,0,.25.14l.4.22.27.12.4.16.28.1.43.13.26.06c.16,0,.32.06.48.09l.21,0a5.58,5.58,0,0,0,.7,0c.17,0,.33,0,.49,0l.26,0a6,6,0,0,0,.74-.14C393.06,63.51,395.09,58.76,393.68,53.91Z"/><path class="cls-1" d="M233.55,204.54v15.54a22.9,22.9,0,0,1-9.73,2.09,18.63,18.63,0,0,1-9.37-2.32,16.24,16.24,0,0,1-6.36-6.45,19.2,19.2,0,0,1-2.28-9.42q0-8.26,5-13.23T224,185.8a19.67,19.67,0,0,1,9.21,2.22,113.6,113.6,0,0,0,11.73-10.92,31.6,31.6,0,0,0-5.84-3.21,40.58,40.58,0,0,0-16-3,38.88,38.88,0,0,0-18.28,4.23,31.45,31.45,0,0,0-12.64,11.78,34.45,34.45,0,0,0,0,34.19,31.6,31.6,0,0,0,12.55,11.78,38,38,0,0,0,18,4.23,49.66,49.66,0,0,0,14.18-2.1,41.22,41.22,0,0,0,12.55-6V203.11A146,146,0,0,1,233.55,204.54Z"/></svg>