<svg id="Layer_1" data-name="Layer 1" xmlns="http://www.w3.org/2000/svg" viewBox="0 0 86.16 97.45"><defs><style>.cls-1{fill:#f79326;}.cls-2{fill:#f49926;}</style></defs><title>v-icon</title><path class="cls-1" d="M3.87,51.41,8,54,8.11,54,5.8,51.46l.11-.18a13.82,13.82,0,0,1,1.92,1.09c2.45,1.9,4.85,3.86,7.28,5.78a9.76,9.76,0,0,0,1.1.62,2.67,2.67,0,0,1,.46.43c.48.49.94,1,1.45,1.48.22.19.47.54.86.21,0,0,.21.08.3.16.32.26.63.53.93.79,0,0,.09.07.08.1-.18,1,.76.92,1.27,1.25.07,0,.11.12.2.24l-.64.24L24,66l.11-.09-1.17-2,.09-.11c.95.78,1.95,1.51,2.83,2.36s.71.83,1.76.4a2.18,2.18,0,0,1-.08.49,2.05,2.05,0,0,0,.58,2.08c.72,1,1.4,2,2.1,3a.84.84,0,0,0,.28.2l.16-.1-1.9-3.76c.86.17,1.35,1.16,2.47.93.08.08.3.27.51.48.62.61,1.12.51,1.45-.29.51-1.26,1-2.52,1.52-3.78,2.53-6.46,5-13,8-19.21a94.87,94.87,0,0,1,10.7-17.13c1.74-2.22,3.53-4.38,5.3-6.57l.17.11c-.26.44-.52.88-.79,1.31-.4.65-.83,1.28-1.22,1.94a1.87,1.87,0,0,0-.33.94,2.6,2.6,0,0,1-.76,1.7c-.15.19-.52.21-.67.4-.74.93-1.86,1.52-2.42,2.62l-2.73,5.24-.32.53L49.79,36l-.13-.07a3,3,0,0,0-.37.58,28.24,28.24,0,0,1-2.55,4.26,11.64,11.64,0,0,0-1.93,4.6c0,.29-.42.62-.72.76a1.74,1.74,0,0,0-1,.9c-.57,1.35-1.16,2.68-1.75,4a.31.31,0,0,0,0,.25c2.08-3,3.83-6.22,6.29-8.95l-.12-.11-1.91,1.5-.09-.07c.19-.26.36-.53.57-.77a117.29,117.29,0,0,0,7.47-9.84C55,31,56.3,28.83,57.78,26.79c.75-1,1.36-2.12,2-3.2a13.33,13.33,0,0,1,2.82-2.79c.63-.56,1.4-1,2-1.52a11.06,11.06,0,0,0,1.18-1.37l-.21-.22c-.66.57-1.3,1.15-2,1.69s-1.52,1-2.21,1.61-1.29,1.26-2,1.81a9.4,9.4,0,0,1,6.12-5.7l-.11-.16-.35.13c-.14.05-.27.09-.24.24.53-.84,1.06-1.69,1.6-2.52a7.84,7.84,0,0,1,.5-.64.71.71,0,0,1,.26-.23,7,7,0,0,0,.94-.35c1.13-.68,2.24-1.39,3.36-2.08a1.32,1.32,0,0,1,.4-.09l0,.62,1.91-1.93-.15-.21-4.93,2.69-.12-.16L71,10.29c.28-.25.55-.52.84-.76C72.57,9,73.34,8.43,74,7.79c1.35-1.31,2.65-2.68,4-4,.16-.16.33-.3.5-.46l.18.14-1.4,1.93.17.14.85-.82c-.7,1.42-2.31,2.14-2.73,3.79.24.23.59.25.61-.12,0-1.16,1-1.64,1.64-2.31,1.83-1.82,3.71-3.59,5.58-5.39a.58.58,0,0,1,.41-.15,2.34,2.34,0,0,1-.24.44C81.92,3,80.28,5.13,78.62,7.19c-.17.22-.5.3-.74.47a10.9,10.9,0,0,0-3.28,4.18,4.63,4.63,0,0,0,.76-.63c.37-.44.69-.91,1-1.38s.64-1,1.35-1.07c.38-.06.71-.49,1.14-.7l-.58,1.08.08.07L80.74,6.6l.14.14L79.09,9.22l0,.07L80,8.54l.14.11L77.2,13.09l.13.12,2.3-2.48.16.1c-.27.38-.52.76-.8,1.12-1.44,1.87-2.89,3.72-4.33,5.58-.56.73-1.08,1.5-1.69,2.18a11.58,11.58,0,0,1-1.34,1,12.25,12.25,0,0,0-.9.87l.22.22.39,0,.14.11c-.08,0-.21,0-.23.1-.29.69-.56,1.38-.84,2.07a1,1,0,0,1-.57.56c-.52.26-.87.85-1.3,1.3l.15.18.49-.11.12.09L67,28.85c.41-.92,1-2.14,1.53-3.42-1,.55-3.91,5.78-3.81,7.12l.84-1.37.19.12c-.26.66-.47,1.33-.78,2-.19.38,0,.54.22.73l1.75,1.22c-.36.42-.66.27-.94,0-.47-.44-.9-.91-1.39-1.32-.13-.12-.41-.08-.62-.12,0,.2,0,.39.07.58a2.42,2.42,0,0,1,.1.45s-.23.16-.31.12a1.6,1.6,0,0,0-1.95.79l-1-.95c-.48.21-.53.45-.18.79s.9,1,1.4,1.4c.34.31.32.59,0,.85a6.22,6.22,0,0,1-1,.72.65.65,0,0,1-.54-.14c-.08-.08,0-.37.08-.51s.31-.21.43-.36a1.93,1.93,0,0,0,.23-.48c-.19-.06-.41-.21-.57-.17a1.42,1.42,0,0,0-1,1.34c.06.77.61,1.07,1.34,1.23-.53,1-1.09,1.94-1.55,2.93-.81,1.79-1.61,3.59-2.33,5.42-2,5.15-4.1,10.27-6,15.48-1.37,3.87-2.41,7.85-3.63,11.77a46.24,46.24,0,0,1-3.26,8.34c-.12.23-.21.46-.32.69,0,0-.07,0-.2.1.1-.67.16-1.3.3-1.91.2-.86.45-1.72.69-2.58l.06-.24c.51-1.45,1.07-2.89,1.52-4.36a15.05,15.05,0,0,0,.31-2.29l-.2.07c.44-1,.92-2,1.37-3a.77.77,0,0,0,0-.37,1.73,1.73,0,0,1,0-.45c.33-1.21.68-2.42,1-3.46.32,0,.59,0,.64-.09a3.53,3.53,0,0,0,.48-1.16C50.36,61,51.82,58,53.15,55c.59-1.35,1-2.76,1.51-4.14l-.25-.12a24.13,24.13,0,0,1-1.31,2.12C52,54.21,51.87,56,51,57.44l-.12.22a.3.3,0,0,1-.25.17l.45-1.59-.2-.08c-.14.25-.3.48-.41.73-.55,1.28-1.12,2.55-1.6,3.86a3.32,3.32,0,0,0-.11,1.51,6.6,6.6,0,0,1-.71,3.13c-.39,1-1,2-1.32,3a18.82,18.82,0,0,0-.5,2.37L44.06,80.84a.9.9,0,0,1-.25.44c.13-3.37.63-6.72.61-10.09l-.26,0c-.1.69-.22,1.38-.3,2.08a50.32,50.32,0,0,1-1.49,7.68c-.53,1.83-.82,3.74-1.44,5.54s-1.12,4-3.29,4.84a2.78,2.78,0,0,0-.37.26,3.45,3.45,0,0,0,2.27-1.18,7.63,7.63,0,0,0,1.85-3.89c.48-2,1-4,1.69-5.92L42.46,85l.2,0,.73-1.51a6.11,6.11,0,0,1,0,3.26,12.35,12.35,0,0,1-1.78,4.31,8.06,8.06,0,0,1-12.7-.1c-.14-.19-.32-.43-.3-.62.07-.67-.37-1.06-.7-1.51a10.38,10.38,0,0,1-1.07-1.65l.53.22.1-.07c-.36-.57-.72-1.14-1.07-1.71-.59-.93-1.17-1.87-1.74-2.81-.07-.11-.16-.25-.14-.35.16-.81-.45-1.23-.85-1.75-.83-1.08-1.65-2.15-2.5-3.21a2.82,2.82,0,0,0-.73-.69,4.31,4.31,0,0,1-1.61-2,5.36,5.36,0,0,0-.65-.93,1.37,1.37,0,0,1-.41-1.21,1.08,1.08,0,0,0-.23-.77c-.53-.7-1.15-1.35-1.65-2.07A15.3,15.3,0,0,0,14,67.25a9.83,9.83,0,0,1-.83-.88,4.43,4.43,0,0,1-.41-.7l.15-.1c1.4,1.58,2.78,3.17,4.2,4.73.31.35.79.54,1.13.87.68.65,1.34,1.33,2,2a16.41,16.41,0,0,1,1,1.35,3.34,3.34,0,0,0,.33.32l.14-.1a3.08,3.08,0,0,0-.24-.52c-.92-1.25-1.82-2.5-2.78-3.71-.39-.48-.93-.83-1.37-1.28a2.8,2.8,0,0,1-.48-.73,2.31,2.31,0,0,0-.79-1,10,10,0,0,1-1.4-1.5c-.27-.29-.58-.54-.93-.86.48-.78-.13-1.18-.83-1.55-.07,0-.11-.13-.17-.18A40.16,40.16,0,0,1,9.55,60c-1.46-1.71-2.93-3.4-4.39-5.11-.21-.25-.39-.52-.64-.86,2.48.68,3.79,2.69,5.5,4.17a10.44,10.44,0,0,1,1.65,1.85L10.26,58.9l-.11.11,3.53,3.75.07-.59,1.1,1.15.18-.14c-.83-1-1.65-2-2.5-3S10.75,58,9.81,57s-1.88-2-2.88-2.87-2.1-1.74-3.15-2.6ZM6.53,55.5l-.21.19,4.18,4.64.19-.17ZM34.61,69.87c.41.09.47-.15.54-.49a1,1,0,0,1,.46-.62c.38-.16.42-.35.26-.67C34.61,68.16,34.26,68.65,34.61,69.87Zm2.25-.64c-.2.26-.44.42-.45.58,0,.4-.11.64-.53.75-.13,0-.19.29-.29.45a1.3,1.3,0,0,0,.48.14C36.87,71,37.17,70.4,36.86,69.23ZM34,70.76l-.15-.06a6.63,6.63,0,0,1-.36.87c-.44.76-.56,1.85-1.81,1.83.33.46.66.49,1.09.07A5.46,5.46,0,0,0,34,70.76ZM75.46,8.87l-.18-.16L74,10.16C75,10.27,75.05,9.38,75.46,8.87ZM14.81,65.2l.13-.14-.93-.9C13.87,65,14.5,64.94,14.81,65.2Z"/><path class="cls-2" d="M28.56,67,30,68.49C29.37,68.14,28.75,67.78,28.56,67Z"/></svg>